<svg width="1000" height="1000" viewBox="0 0 1000 1000" fill="none" xmlns="http://www.w3.org/2000/svg">
<mask id="path-1-inside-1_0_1" fill="white">
<path d="M738.519 622.65L507.903 738L282.726 625.37L299.091 611.192L507.903 715.637L720.295 609.402L738.519 622.65ZM731.156 358.334V581.667L507.903 693.334L284.65 581.667V358.334L507.903 246.667L731.156 358.334ZM314.65 376.871V563.128L507.902 659.79L701.156 563.128V376.871L507.903 280.21L314.65 376.871ZM260 374.585V573.048L240 590.374V358.796L260 374.585ZM775.807 580.579L755.807 566.04V373.771L775.807 356.444V580.579ZM744.1 320.141L727.734 334.317L507.903 224.362L295.857 330.422L279.187 316.399L507.903 202L744.1 320.141Z"/>
</mask>
<path d="M738.519 622.65L507.903 738L282.726 625.37L299.091 611.192L507.903 715.637L720.295 609.402L738.519 622.65ZM731.156 358.334V581.667L507.903 693.334L284.65 581.667V358.334L507.903 246.667L731.156 358.334ZM314.65 376.871V563.128L507.902 659.79L701.156 563.128V376.871L507.903 280.21L314.65 376.871ZM260 374.585V573.048L240 590.374V358.796L260 374.585ZM775.807 580.579L755.807 566.04V373.771L775.807 356.444V580.579ZM744.1 320.141L727.734 334.317L507.903 224.362L295.857 330.422L279.187 316.399L507.903 202L744.1 320.141Z" fill="black"/>
<path d="M738.519 622.65L738.966 623.545L740.437 622.809L739.107 621.842L738.519 622.65ZM507.903 738L507.456 738.894L507.903 739.118L508.351 738.894L507.903 738ZM282.726 625.37L282.071 624.614L280.939 625.595L282.278 626.264L282.726 625.37ZM299.091 611.192L299.538 610.298L298.941 609.999L298.436 610.437L299.091 611.192ZM507.903 715.637L507.456 716.531L507.903 716.755L508.351 716.531L507.903 715.637ZM720.295 609.402L720.883 608.594L720.391 608.236L719.848 608.508L720.295 609.402ZM731.156 358.334H732.156V357.716L731.604 357.44L731.156 358.334ZM731.156 581.667L731.604 582.561L732.156 582.285V581.667H731.156ZM507.903 693.334L507.456 694.228L507.903 694.452L508.351 694.228L507.903 693.334ZM284.65 581.667H283.65V582.285L284.203 582.561L284.65 581.667ZM284.65 358.334L284.203 357.44L283.65 357.716V358.334H284.65ZM507.903 246.667L508.351 245.773L507.903 245.549L507.456 245.773L507.903 246.667ZM314.65 376.871L314.203 375.977L313.65 376.253V376.871H314.65ZM314.65 563.128H313.65V563.746L314.203 564.022L314.65 563.128ZM507.902 659.79L507.455 660.684L507.902 660.908L508.35 660.684L507.902 659.79ZM701.156 563.128L701.604 564.022L702.156 563.746V563.128H701.156ZM701.156 376.871H702.156V376.253L701.604 375.977L701.156 376.871ZM507.903 280.21L508.351 279.316L507.903 279.092L507.456 279.316L507.903 280.21ZM260 374.585H261V374.1L260.62 373.8L260 374.585ZM260 573.048L260.655 573.804L261 573.505V573.048H260ZM240 590.374H239V592.563L240.655 591.13L240 590.374ZM240 358.796L240.62 358.011L239 356.732V358.796H240ZM775.807 580.579L775.219 581.388L776.807 582.542V580.579H775.807ZM755.807 566.04H754.807V566.549L755.219 566.849L755.807 566.04ZM755.807 373.771L755.152 373.016L754.807 373.315V373.771H755.807ZM775.807 356.444H776.807V354.255L775.152 355.689L775.807 356.444ZM744.1 320.141L744.754 320.896L745.886 319.916L744.547 319.246L744.1 320.141ZM727.734 334.317L727.287 335.212L727.884 335.511L728.389 335.073L727.734 334.317ZM507.903 224.362L508.351 223.468L507.903 223.244L507.456 223.468L507.903 224.362ZM295.857 330.422L295.214 331.187L295.717 331.61L296.305 331.316L295.857 330.422ZM279.187 316.399L278.739 315.505L277.379 316.186L278.543 317.165L279.187 316.399ZM507.903 202L508.351 201.106L507.903 200.882L507.456 201.106L507.903 202ZM738.519 622.65L738.071 621.756L507.456 737.106L507.903 738L508.351 738.894L738.966 623.545L738.519 622.65ZM507.903 738L508.351 737.106L283.173 624.476L282.726 625.37L282.278 626.264L507.456 738.894L507.903 738ZM282.726 625.37L283.38 626.126L299.746 611.948L299.091 611.192L298.436 610.437L282.071 624.614L282.726 625.37ZM299.091 611.192L298.643 612.087L507.456 716.531L507.903 715.637L508.351 714.742L299.538 610.298L299.091 611.192ZM507.903 715.637L508.351 716.531L720.742 610.297L720.295 609.402L719.848 608.508L507.456 714.742L507.903 715.637ZM720.295 609.402L719.707 610.211L737.931 623.459L738.519 622.65L739.107 621.842L720.883 608.594L720.295 609.402ZM731.156 358.334H730.156V581.667H731.156H732.156V358.334H731.156ZM731.156 581.667L730.709 580.773L507.456 692.44L507.903 693.334L508.351 694.228L731.604 582.561L731.156 581.667ZM507.903 693.334L508.351 692.44L285.098 580.773L284.65 581.667L284.203 582.561L507.456 694.228L507.903 693.334ZM284.65 581.667H285.65V358.334H284.65H283.65V581.667H284.65ZM284.65 358.334L285.098 359.228L508.351 247.561L507.903 246.667L507.456 245.773L284.203 357.44L284.65 358.334ZM507.903 246.667L507.456 247.561L730.709 359.228L731.156 358.334L731.604 357.44L508.351 245.773L507.903 246.667ZM314.65 376.871H313.65V563.128H314.65H315.65V376.871H314.65ZM314.65 563.128L314.203 564.022L507.455 660.684L507.902 659.79L508.35 658.896L315.098 562.234L314.65 563.128ZM507.902 659.79L508.35 660.684L701.604 564.022L701.156 563.128L700.709 562.234L507.455 658.896L507.902 659.79ZM701.156 563.128H702.156V376.871H701.156H700.156V563.128H701.156ZM701.156 376.871L701.604 375.977L508.351 279.316L507.903 280.21L507.456 281.104L700.709 377.765L701.156 376.871ZM507.903 280.21L507.456 279.316L314.203 375.977L314.65 376.871L315.098 377.765L508.351 281.104L507.903 280.21ZM260 374.585H259V573.048H260H261V374.585H260ZM260 573.048L259.345 572.292L239.345 589.618L240 590.374L240.655 591.13L260.655 573.804L260 573.048ZM240 590.374H241V358.796H240H239V590.374H240ZM240 358.796L239.38 359.581L259.38 375.37L260 374.585L260.62 373.8L240.62 358.011L240 358.796ZM775.807 580.579L776.395 579.77L756.395 565.231L755.807 566.04L755.219 566.849L775.219 581.388L775.807 580.579ZM755.807 566.04H756.807V373.771H755.807H754.807V566.04H755.807ZM755.807 373.771L756.461 374.527L776.461 357.2L775.807 356.444L775.152 355.689L755.152 373.016L755.807 373.771ZM775.807 356.444H774.807V580.579H775.807H776.807V356.444H775.807ZM744.1 320.141L743.445 319.385L727.08 333.562L727.734 334.317L728.389 335.073L744.754 320.896L744.1 320.141ZM727.734 334.317L728.182 333.423L508.351 223.468L507.903 224.362L507.456 225.257L727.287 335.212L727.734 334.317ZM507.903 224.362L507.456 223.468L295.41 329.528L295.857 330.422L296.305 331.316L508.351 225.257L507.903 224.362ZM295.857 330.422L296.501 329.657L279.83 315.634L279.187 316.399L278.543 317.165L295.214 331.187L295.857 330.422ZM279.187 316.399L279.634 317.294L508.351 202.894L507.903 202L507.456 201.106L278.739 315.505L279.187 316.399ZM507.903 202L507.456 202.894L743.652 321.035L744.1 320.141L744.547 319.246L508.351 201.106L507.903 202Z" fill="#001EFF" mask="url(#path-1-inside-1_0_1)"/>
<rect width="113.27" height="113.27" transform="matrix(0.933893 0.357553 -0.933893 0.357553 509.782 373)" fill="black" stroke="#001EFF"/>
<rect width="113.27" height="81" transform="matrix(0.933893 0.357553 0 1 404 413.5)" fill="black" stroke="#001EFF"/>
<rect width="113.27" height="81" transform="matrix(0.933893 -0.357553 0 1 509.782 454)" fill="black" stroke="#001EFF"/>
</svg>
